<mxfile host="app.diagrams.net" modified="2020-04-23T21:45:59.746Z" agent="5.0 (Windows NT 10.0; Win64; x64) AppleWebKit/537.36 (KHTML, like Gecko) Chrome/81.0.4044.113 Safari/537.36" etag="3WuM_GpWvAvAKIr8guZy" version="12.9.13" type="github" pages="2">
  <diagram id="H5BMAcBI1JmkURUzyEVr" name="Page-1">
    <mxGraphModel dx="1422" dy="713" grid="1" gridSize="10" guides="1" tooltips="1" connect="1" arrows="1" fold="1" page="1" pageScale="1" pageWidth="850" pageHeight="1100" math="0" shadow="0">
      <root>
        <mxCell id="0" />
        <mxCell id="1" parent="0" />
        <mxCell id="Uud9mhJ2x7U1XPszU1EF-3" value="" style="edgeStyle=orthogonalEdgeStyle;rounded=0;orthogonalLoop=1;jettySize=auto;html=1;" edge="1" parent="1" source="Uud9mhJ2x7U1XPszU1EF-1" target="Uud9mhJ2x7U1XPszU1EF-2">
          <mxGeometry relative="1" as="geometry" />
        </mxCell>
        <mxCell id="Uud9mhJ2x7U1XPszU1EF-1" value="a" style="rounded=1;whiteSpace=wrap;html=1;" vertex="1" parent="1">
          <mxGeometry x="80" y="200" width="120" height="60" as="geometry" />
        </mxCell>
        <mxCell id="Uud9mhJ2x7U1XPszU1EF-5" value="" style="edgeStyle=orthogonalEdgeStyle;rounded=0;orthogonalLoop=1;jettySize=auto;html=1;" edge="1" parent="1" source="Uud9mhJ2x7U1XPszU1EF-2" target="Uud9mhJ2x7U1XPszU1EF-4">
          <mxGeometry relative="1" as="geometry" />
        </mxCell>
        <mxCell id="Uud9mhJ2x7U1XPszU1EF-2" value="b" style="rounded=1;whiteSpace=wrap;html=1;" vertex="1" parent="1">
          <mxGeometry x="280" y="200" width="120" height="60" as="geometry" />
        </mxCell>
        <mxCell id="Uud9mhJ2x7U1XPszU1EF-4" value="c" style="rounded=1;whiteSpace=wrap;html=1;" vertex="1" parent="1">
          <mxGeometry x="480" y="200" width="120" height="60" as="geometry" />
        </mxCell>
        <mxCell id="Uud9mhJ2x7U1XPszU1EF-9" value="" style="edgeStyle=orthogonalEdgeStyle;rounded=0;orthogonalLoop=1;jettySize=auto;html=1;" edge="1" parent="1" source="Uud9mhJ2x7U1XPszU1EF-7" target="Uud9mhJ2x7U1XPszU1EF-2">
          <mxGeometry relative="1" as="geometry" />
        </mxCell>
        <mxCell id="Uud9mhJ2x7U1XPszU1EF-7" value="b1: b 1&lt;br&gt;b2: b 2&lt;br&gt;b3 : b 3" style="text;html=1;strokeColor=none;fillColor=none;align=center;verticalAlign=middle;whiteSpace=wrap;rounded=0;" vertex="1" parent="1">
          <mxGeometry x="300" y="100" width="80" height="60" as="geometry" />
        </mxCell>
        <mxCell id="Uud9mhJ2x7U1XPszU1EF-11" value="" style="edgeStyle=orthogonalEdgeStyle;rounded=0;orthogonalLoop=1;jettySize=auto;html=1;" edge="1" parent="1" source="Uud9mhJ2x7U1XPszU1EF-10" target="Uud9mhJ2x7U1XPszU1EF-4">
          <mxGeometry relative="1" as="geometry" />
        </mxCell>
        <mxCell id="Uud9mhJ2x7U1XPszU1EF-10" value="c1: c 1&lt;br&gt;c2: c 2&lt;br&gt;" style="text;html=1;strokeColor=none;fillColor=none;align=center;verticalAlign=middle;whiteSpace=wrap;rounded=0;" vertex="1" parent="1">
          <mxGeometry x="500" y="100" width="80" height="60" as="geometry" />
        </mxCell>
      </root>
    </mxGraphModel>
  </diagram>
  <diagram id="Y6SE0eeeY7XBGxdex4er" name="Page-2">
    <mxGraphModel dx="2272" dy="713" grid="1" gridSize="10" guides="1" tooltips="1" connect="1" arrows="1" fold="1" page="1" pageScale="1" pageWidth="850" pageHeight="1100" math="0" shadow="0">
      <root>
        <mxCell id="Jg3-3TS7lUfiWJRQ20VX-0" />
        <mxCell id="Jg3-3TS7lUfiWJRQ20VX-1" parent="Jg3-3TS7lUfiWJRQ20VX-0" />
        <mxCell id="zbZj51WCKt7FTfjq8b9X-0" value="" style="edgeStyle=orthogonalEdgeStyle;rounded=0;orthogonalLoop=1;jettySize=auto;html=1;" edge="1" parent="Jg3-3TS7lUfiWJRQ20VX-1" source="zbZj51WCKt7FTfjq8b9X-1" target="zbZj51WCKt7FTfjq8b9X-3">
          <mxGeometry relative="1" as="geometry" />
        </mxCell>
        <mxCell id="zbZj51WCKt7FTfjq8b9X-1" value="a" style="rounded=1;whiteSpace=wrap;html=1;" vertex="1" parent="Jg3-3TS7lUfiWJRQ20VX-1">
          <mxGeometry x="80" y="200" width="120" height="60" as="geometry" />
        </mxCell>
        <mxCell id="zbZj51WCKt7FTfjq8b9X-2" value="" style="edgeStyle=orthogonalEdgeStyle;rounded=0;orthogonalLoop=1;jettySize=auto;html=1;" edge="1" parent="Jg3-3TS7lUfiWJRQ20VX-1" source="zbZj51WCKt7FTfjq8b9X-3" target="zbZj51WCKt7FTfjq8b9X-4">
          <mxGeometry relative="1" as="geometry" />
        </mxCell>
        <mxCell id="zbZj51WCKt7FTfjq8b9X-3" value="b" style="rounded=1;whiteSpace=wrap;html=1;" vertex="1" parent="Jg3-3TS7lUfiWJRQ20VX-1">
          <mxGeometry x="280" y="200" width="120" height="60" as="geometry" />
        </mxCell>
        <mxCell id="zbZj51WCKt7FTfjq8b9X-9" style="edgeStyle=orthogonalEdgeStyle;rounded=0;orthogonalLoop=1;jettySize=auto;html=1;entryX=0.5;entryY=0;entryDx=0;entryDy=0;" edge="1" parent="Jg3-3TS7lUfiWJRQ20VX-1" source="zbZj51WCKt7FTfjq8b9X-4" target="zbZj51WCKt7FTfjq8b9X-48">
          <mxGeometry relative="1" as="geometry">
            <Array as="points">
              <mxPoint x="640" y="360" />
            </Array>
          </mxGeometry>
        </mxCell>
        <mxCell id="zbZj51WCKt7FTfjq8b9X-4" value="c" style="rounded=1;whiteSpace=wrap;html=1;" vertex="1" parent="Jg3-3TS7lUfiWJRQ20VX-1">
          <mxGeometry x="580" y="200" width="120" height="60" as="geometry" />
        </mxCell>
        <mxCell id="zbZj51WCKt7FTfjq8b9X-5" value="" style="edgeStyle=orthogonalEdgeStyle;rounded=0;orthogonalLoop=1;jettySize=auto;html=1;" edge="1" parent="Jg3-3TS7lUfiWJRQ20VX-1" source="zbZj51WCKt7FTfjq8b9X-6" target="zbZj51WCKt7FTfjq8b9X-3">
          <mxGeometry relative="1" as="geometry" />
        </mxCell>
        <mxCell id="zbZj51WCKt7FTfjq8b9X-6" value="b1: b 1&lt;br&gt;b2: b 2&lt;br&gt;b3 : b 3" style="text;html=1;strokeColor=none;fillColor=none;align=center;verticalAlign=middle;whiteSpace=wrap;rounded=0;" vertex="1" parent="Jg3-3TS7lUfiWJRQ20VX-1">
          <mxGeometry x="300" y="100" width="80" height="60" as="geometry" />
        </mxCell>
        <mxCell id="zbZj51WCKt7FTfjq8b9X-7" value="" style="edgeStyle=orthogonalEdgeStyle;rounded=0;orthogonalLoop=1;jettySize=auto;html=1;" edge="1" parent="Jg3-3TS7lUfiWJRQ20VX-1" source="zbZj51WCKt7FTfjq8b9X-8" target="zbZj51WCKt7FTfjq8b9X-4">
          <mxGeometry relative="1" as="geometry" />
        </mxCell>
        <mxCell id="zbZj51WCKt7FTfjq8b9X-8" value="c1: c 1&lt;br&gt;c2: c 2&lt;br&gt;" style="text;html=1;strokeColor=none;fillColor=none;align=center;verticalAlign=middle;whiteSpace=wrap;rounded=0;" vertex="1" parent="Jg3-3TS7lUfiWJRQ20VX-1">
          <mxGeometry x="600" y="90" width="80" height="60" as="geometry" />
        </mxCell>
        <mxCell id="zbZj51WCKt7FTfjq8b9X-14" value="&lt;table border=&quot;1&quot; width=&quot;100%&quot; cellpadding=&quot;4&quot; style=&quot;width: 100% ; height: 100% ; border-collapse: collapse&quot;&gt;&lt;tbody&gt;&lt;tr style=&quot;background-color: #a7c942 ; color: #ffffff ; border: 1px solid #98bf21&quot;&gt;&lt;th align=&quot;left&quot;&gt;a&lt;/th&gt;&lt;th align=&quot;left&quot; style=&quot;line-height: 100%&quot;&gt;b&lt;/th&gt;&lt;th align=&quot;left&quot;&gt;c&lt;/th&gt;&lt;td&gt;b&lt;/td&gt;&lt;td&gt;c&lt;/td&gt;&lt;td&gt;b&lt;/td&gt;&lt;/tr&gt;&lt;tr style=&quot;border: 1px solid #98bf21&quot;&gt;&lt;td&gt;&lt;/td&gt;&lt;td&gt;b1: b1&lt;br&gt;b2: b 2&lt;br&gt;b3: b 3&lt;br&gt;A1&lt;/td&gt;&lt;td&gt;c1: c 1&lt;br&gt;c2: c2&lt;br&gt;B1&lt;/td&gt;&lt;td&gt;b&#39;1: b&#39; 1&lt;br&gt;b&#39;2: b&#39; 2&lt;br&gt;A1&lt;/td&gt;&lt;td&gt;c1: c 1&lt;br&gt;c2: c 2&lt;br&gt;B2&lt;/td&gt;&lt;td&gt;b&#39;&#39;1: b&#39;&#39; 1&lt;br&gt;b&#39;&#39;2: b&#39;&#39; 2&lt;br&gt;A1&lt;/td&gt;&lt;/tr&gt;&lt;tr style=&quot;background-color: #eaf2d3 ; border: 1px solid #98bf21&quot;&gt;&lt;td&gt;&lt;/td&gt;&lt;td&gt;&lt;br&gt;&lt;/td&gt;&lt;td&gt;&lt;/td&gt;&lt;td&gt;&lt;br&gt;&lt;/td&gt;&lt;td&gt;&lt;br&gt;&lt;/td&gt;&lt;td&gt;&lt;br&gt;&lt;/td&gt;&lt;/tr&gt;&lt;tr style=&quot;border: 1px solid #98bf21&quot;&gt;&lt;td&gt;&lt;br&gt;&lt;/td&gt;&lt;td&gt;&lt;br&gt;&lt;/td&gt;&lt;td&gt;&lt;/td&gt;&lt;td&gt;&lt;br&gt;&lt;/td&gt;&lt;td&gt;&lt;br&gt;&lt;/td&gt;&lt;td&gt;&lt;br&gt;&lt;/td&gt;&lt;/tr&gt;&lt;tr style=&quot;background-color: #eaf2d3 ; border: 1px solid #98bf21&quot;&gt;&lt;td&gt;&lt;br&gt;&lt;/td&gt;&lt;td&gt;&lt;br&gt;&lt;/td&gt;&lt;td&gt;&lt;/td&gt;&lt;td&gt;&lt;br&gt;&lt;/td&gt;&lt;td&gt;&lt;br&gt;&lt;/td&gt;&lt;td&gt;&lt;br&gt;&lt;/td&gt;&lt;/tr&gt;&lt;/tbody&gt;&lt;/table&gt;" style="text;html=1;strokeColor=#c0c0c0;fillColor=#ffffff;overflow=fill;rounded=0;" vertex="1" parent="Jg3-3TS7lUfiWJRQ20VX-1">
          <mxGeometry x="-270" y="570" width="480" height="160" as="geometry" />
        </mxCell>
        <mxCell id="zbZj51WCKt7FTfjq8b9X-15" value="" style="edgeStyle=orthogonalEdgeStyle;rounded=0;orthogonalLoop=1;jettySize=auto;html=1;" edge="1" parent="Jg3-3TS7lUfiWJRQ20VX-1" source="zbZj51WCKt7FTfjq8b9X-16" target="zbZj51WCKt7FTfjq8b9X-19">
          <mxGeometry relative="1" as="geometry" />
        </mxCell>
        <mxCell id="zbZj51WCKt7FTfjq8b9X-16" value="a" style="rounded=1;whiteSpace=wrap;html=1;" vertex="1" parent="Jg3-3TS7lUfiWJRQ20VX-1">
          <mxGeometry x="-600" y="200" width="120" height="60" as="geometry" />
        </mxCell>
        <mxCell id="zbZj51WCKt7FTfjq8b9X-17" value="" style="edgeStyle=orthogonalEdgeStyle;rounded=0;orthogonalLoop=1;jettySize=auto;html=1;" edge="1" parent="Jg3-3TS7lUfiWJRQ20VX-1" source="zbZj51WCKt7FTfjq8b9X-19" target="zbZj51WCKt7FTfjq8b9X-22">
          <mxGeometry relative="1" as="geometry" />
        </mxCell>
        <mxCell id="zbZj51WCKt7FTfjq8b9X-19" value="b" style="rounded=1;whiteSpace=wrap;html=1;" vertex="1" parent="Jg3-3TS7lUfiWJRQ20VX-1">
          <mxGeometry x="-400" y="200" width="120" height="60" as="geometry" />
        </mxCell>
        <mxCell id="zbZj51WCKt7FTfjq8b9X-22" value="c" style="rounded=1;whiteSpace=wrap;html=1;" vertex="1" parent="Jg3-3TS7lUfiWJRQ20VX-1">
          <mxGeometry x="-200" y="200" width="120" height="60" as="geometry" />
        </mxCell>
        <mxCell id="zbZj51WCKt7FTfjq8b9X-23" value="" style="edgeStyle=orthogonalEdgeStyle;rounded=0;orthogonalLoop=1;jettySize=auto;html=1;" edge="1" parent="Jg3-3TS7lUfiWJRQ20VX-1" source="zbZj51WCKt7FTfjq8b9X-24" target="zbZj51WCKt7FTfjq8b9X-19">
          <mxGeometry relative="1" as="geometry" />
        </mxCell>
        <mxCell id="zbZj51WCKt7FTfjq8b9X-24" value="b1: b 1&lt;br&gt;b2: b 2&lt;br&gt;b3 : b 3" style="text;html=1;strokeColor=none;fillColor=none;align=center;verticalAlign=middle;whiteSpace=wrap;rounded=0;" vertex="1" parent="Jg3-3TS7lUfiWJRQ20VX-1">
          <mxGeometry x="-380" y="100" width="80" height="60" as="geometry" />
        </mxCell>
        <mxCell id="zbZj51WCKt7FTfjq8b9X-25" value="" style="edgeStyle=orthogonalEdgeStyle;rounded=0;orthogonalLoop=1;jettySize=auto;html=1;" edge="1" parent="Jg3-3TS7lUfiWJRQ20VX-1" source="zbZj51WCKt7FTfjq8b9X-26" target="zbZj51WCKt7FTfjq8b9X-22">
          <mxGeometry relative="1" as="geometry" />
        </mxCell>
        <mxCell id="zbZj51WCKt7FTfjq8b9X-26" value="c1: c 1&lt;br&gt;c2: c 2&lt;br&gt;" style="text;html=1;strokeColor=none;fillColor=none;align=center;verticalAlign=middle;whiteSpace=wrap;rounded=0;" vertex="1" parent="Jg3-3TS7lUfiWJRQ20VX-1">
          <mxGeometry x="-180" y="90" width="80" height="60" as="geometry" />
        </mxCell>
        <mxCell id="zbZj51WCKt7FTfjq8b9X-34" style="edgeStyle=orthogonalEdgeStyle;rounded=0;orthogonalLoop=1;jettySize=auto;html=1;exitX=0;exitY=0.5;exitDx=0;exitDy=0;entryX=1;entryY=0.5;entryDx=0;entryDy=0;" edge="1" parent="Jg3-3TS7lUfiWJRQ20VX-1" source="zbZj51WCKt7FTfjq8b9X-10" target="zbZj51WCKt7FTfjq8b9X-48">
          <mxGeometry relative="1" as="geometry">
            <mxPoint x="740" y="280" as="targetPoint" />
          </mxGeometry>
        </mxCell>
        <mxCell id="zbZj51WCKt7FTfjq8b9X-41" value="A" style="text;html=1;strokeColor=none;fillColor=none;align=center;verticalAlign=middle;whiteSpace=wrap;rounded=0;" vertex="1" parent="Jg3-3TS7lUfiWJRQ20VX-1">
          <mxGeometry x="200" y="210" width="40" height="20" as="geometry" />
        </mxCell>
        <mxCell id="zbZj51WCKt7FTfjq8b9X-42" value="B, B&#39;, B&#39;&#39;" style="text;html=1;strokeColor=none;fillColor=none;align=center;verticalAlign=middle;whiteSpace=wrap;rounded=0;" vertex="1" parent="Jg3-3TS7lUfiWJRQ20VX-1">
          <mxGeometry x="440" y="210" width="50" height="20" as="geometry" />
        </mxCell>
        <mxCell id="zbZj51WCKt7FTfjq8b9X-49" style="edgeStyle=orthogonalEdgeStyle;rounded=0;orthogonalLoop=1;jettySize=auto;html=1;entryX=0.5;entryY=1;entryDx=0;entryDy=0;" edge="1" parent="Jg3-3TS7lUfiWJRQ20VX-1" source="zbZj51WCKt7FTfjq8b9X-48" target="zbZj51WCKt7FTfjq8b9X-3">
          <mxGeometry relative="1" as="geometry" />
        </mxCell>
        <mxCell id="zbZj51WCKt7FTfjq8b9X-50" style="edgeStyle=orthogonalEdgeStyle;rounded=0;orthogonalLoop=1;jettySize=auto;html=1;entryX=0.5;entryY=0;entryDx=0;entryDy=0;entryPerimeter=0;" edge="1" parent="Jg3-3TS7lUfiWJRQ20VX-1" source="zbZj51WCKt7FTfjq8b9X-48" target="zbZj51WCKt7FTfjq8b9X-54">
          <mxGeometry relative="1" as="geometry">
            <mxPoint x="640" y="470" as="targetPoint" />
          </mxGeometry>
        </mxCell>
        <mxCell id="zbZj51WCKt7FTfjq8b9X-48" value="&lt;span&gt;max loop : 2&lt;/span&gt;" style="rhombus;whiteSpace=wrap;html=1;" vertex="1" parent="Jg3-3TS7lUfiWJRQ20VX-1">
          <mxGeometry x="600" y="320" width="80" height="80" as="geometry" />
        </mxCell>
        <mxCell id="zbZj51WCKt7FTfjq8b9X-53" value="" style="strokeWidth=2;html=1;shape=mxgraph.flowchart.delay;whiteSpace=wrap;" vertex="1" parent="Jg3-3TS7lUfiWJRQ20VX-1">
          <mxGeometry x="780" y="325" width="185" height="70" as="geometry" />
        </mxCell>
        <mxCell id="zbZj51WCKt7FTfjq8b9X-10" value="b&#39;1: b&#39; 1&lt;br&gt;b&#39;2: b&#39; 2" style="text;html=1;strokeColor=none;fillColor=none;align=center;verticalAlign=middle;whiteSpace=wrap;rounded=0;" vertex="1" parent="Jg3-3TS7lUfiWJRQ20VX-1">
          <mxGeometry x="785" y="330" width="80" height="60" as="geometry" />
        </mxCell>
        <mxCell id="zbZj51WCKt7FTfjq8b9X-13" value="b&#39;&#39;1: b&#39; 1&lt;br&gt;b&#39;&#39;2: b&#39; 2" style="text;html=1;strokeColor=none;fillColor=none;align=center;verticalAlign=middle;whiteSpace=wrap;rounded=0;" vertex="1" parent="Jg3-3TS7lUfiWJRQ20VX-1">
          <mxGeometry x="865" y="331" width="80" height="60" as="geometry" />
        </mxCell>
        <mxCell id="zbZj51WCKt7FTfjq8b9X-54" value="" style="strokeWidth=2;html=1;shape=mxgraph.flowchart.terminator;whiteSpace=wrap;" vertex="1" parent="Jg3-3TS7lUfiWJRQ20VX-1">
          <mxGeometry x="590" y="450" width="100" height="60" as="geometry" />
        </mxCell>
        <mxCell id="zbZj51WCKt7FTfjq8b9X-55" value="" style="strokeWidth=2;html=1;shape=mxgraph.flowchart.stored_data;whiteSpace=wrap;" vertex="1" parent="Jg3-3TS7lUfiWJRQ20VX-1">
          <mxGeometry x="-70" y="440" width="100" height="60" as="geometry" />
        </mxCell>
      </root>
    </mxGraphModel>
  </diagram>
</mxfile>
